<svg width="94" height="98" viewBox="0 0 94 98" fill="none" xmlns="http://www.w3.org/2000/svg">
<path d="M74.3038 53.6514C69.6752 53.6514 65.3912 55.2609 61.9936 57.9435C57.4634 61.5039 54.6074 67.0154 54.6074 73.1609C54.6074 76.8189 55.6415 80.2818 57.4634 83.2083C60.861 88.866 67.1146 92.6704 74.3038 92.6704C79.2772 92.6704 83.8074 90.8657 87.2542 87.793C88.7807 86.5249 90.1102 84.9641 91.1443 83.2083C92.9662 80.2818 94.0003 76.8189 94.0003 73.1609C94.0003 62.3819 85.1861 53.6514 74.3038 53.6514ZM84.4967 71.0636L74.0084 80.672C73.319 81.3061 72.3834 81.6475 71.4971 81.6475C70.5615 81.6475 69.6259 81.3061 68.8873 80.5745L64.0125 75.7459C62.5845 74.3314 62.5845 71.9903 64.0125 70.5759C65.4404 69.1614 67.804 69.1614 69.232 70.5759L71.5956 72.917L79.4741 65.6985C80.9514 64.3328 83.3149 64.4304 84.6937 65.8936C86.0724 67.3568 85.974 69.6492 84.4967 71.0636Z" fill="#594F4F"/>
<path opacity="0.4" d="M89.5199 95.1086C89.5199 96.4743 88.4366 97.5473 87.0578 97.5473H2.46205C1.0833 97.5473 0 96.4743 0 95.1086C0 74.9163 20.0903 58.5283 44.7603 58.5283C49.8321 58.5283 54.7562 59.2112 59.2864 60.528C56.3812 63.9422 54.6085 68.3806 54.6085 73.1604C54.6085 76.8185 55.6421 80.2814 57.464 83.2078C58.4488 84.8662 59.7291 86.3781 61.2063 87.6463C64.6532 90.7678 69.2331 92.67 74.3049 92.67C79.8199 92.67 84.7933 90.4264 88.3386 86.8171C89.1265 89.4509 89.5199 92.231 89.5199 95.1086Z" fill="#594F4F"/>
<path d="M44.7592 48.7738C58.3566 48.7738 69.3797 37.8554 69.3797 24.3869C69.3797 10.9184 58.3566 0 44.7592 0C31.1617 0 20.1387 10.9184 20.1387 24.3869C20.1387 37.8554 31.1617 48.7738 44.7592 48.7738Z" fill="#594F4F"/>
</svg>
