<svg width="100" height="100" viewBox="0 0 100 100" fill="none" xmlns="http://www.w3.org/2000/svg">
<path d="M53.75 62.6016H54.9C56.55 62.6016 57.95 61.1016 57.95 59.2516C57.95 56.9016 57.4 56.6016 55.8 56.0516L53.75 55.3516V62.6016Z" fill="#594F4F"/>
<path d="M50 0C22.4 0 0 22.4 0 50C0 77.6 22.4 100 50 100C77.6 100 100 77.6 100 50C100 22.4 77.6 0 50 0ZM27.9 72.1C29.3499 73.55 29.3499 75.95 27.9 77.4C27.15 78.15 26.2 78.5 25.25 78.5C24.3 78.5 23.35 78.15 22.5999 77.4C15.2999 70.1 11.25 60.35 11.25 50C11.25 39.65 15.2999 29.9 22.5999 22.6C24.0499 21.15 26.4499 21.15 27.9 22.6C29.3499 24.05 29.3499 26.45 27.9 27.9C22 33.8 18.75 41.65 18.75 50C18.75 58.35 22 66.2 27.9 72.1ZM58.25 48.9C63.05 50.6 65.4 53.95 65.4 59.2C65.4 65.2 60.7 70.05 54.85 70.05H53.7V70.95C53.7 73 52 74.7 49.95 74.7C47.9 74.7 46.2 73 46.2 70.95V70.05H46.05C39.7 70.05 34.5 64.7 34.5 58.15C34.5 56.1 36.2 54.4 38.25 54.4C40.3 54.4 42 56.1 42 58.15C42 60.6 43.8 62.55 46.05 62.55H46.2V52.65L41.7 51.05C36.9 49.35 34.55 46 34.55 40.75C34.55 34.75 39.25 29.9 45.1 29.9H46.25V29C46.25 26.95 47.95 25.25 50 25.25C52.05 25.25 53.75 26.95 53.75 29V29.9H53.9C60.25 29.9 65.45 35.25 65.45 41.8C65.45 43.85 63.75 45.55 61.7 45.55C59.65 45.55 57.95 43.85 57.95 41.8C57.95 39.35 56.15 37.4 53.9 37.4H53.75V47.3L58.25 48.9ZM77.4 77.4C76.65 78.15 75.7 78.5 74.75 78.5C73.8 78.5 72.85 78.15 72.1 77.4C70.65 75.95 70.65 73.55 72.1 72.1C78 66.2 81.25 58.35 81.25 50C81.25 41.65 78 33.8 72.1 27.9C70.65 26.45 70.65 24.05 72.1 22.6C73.55 21.15 75.95 21.15 77.4 22.6C84.7 29.9 88.75 39.65 88.75 50C88.75 60.35 84.7 70.1 77.4 77.4Z" fill="#594F4F"/>
<path d="M42.0996 40.8025C42.0996 43.1525 42.6496 43.4525 44.2496 44.0025L46.2996 44.7025V37.4023H45.1496C43.4496 37.4023 42.0996 38.9523 42.0996 40.8025Z" fill="#594F4F"/>
</svg>
