<svg width="96" height="102" viewBox="0 0 96 102" fill="none" xmlns="http://www.w3.org/2000/svg">
<path d="M74.895 31.4676C74.7609 31.4676 74.6714 31.4676 74.5373 31.4676H74.3137C65.8631 31.1841 59.5586 24.2855 59.5586 15.7804C59.5586 7.08624 66.2655 0.0458984 74.4479 0.0458984C82.6303 0.0458984 89.3371 7.13349 89.3371 15.7804C89.2924 24.3327 82.988 31.2313 74.9397 31.5148C74.9397 31.4676 74.9397 31.4676 74.895 31.4676ZM74.4479 7.08629C69.9319 7.08629 66.2655 10.9608 66.2655 15.7332C66.2655 20.411 69.7083 24.191 74.1349 24.38C74.1796 24.3328 74.5373 24.3328 74.9397 24.38C79.2768 24.1438 82.6303 20.3637 82.675 15.7332C82.675 10.9608 79.0085 7.08629 74.4479 7.08629Z" fill="#594F4F"/>
<path d="M74.9402 66.2902C73.1964 66.2902 71.4526 66.1484 69.7088 65.8177C67.8756 65.4869 66.6683 63.6441 66.9813 61.7068C67.2943 59.7696 69.0381 58.4938 70.8713 58.8246C76.371 59.8168 82.1836 58.7305 86.0736 55.99C88.1751 54.5252 89.2929 52.682 89.2929 50.8392C89.2929 48.9964 88.1304 47.2009 86.0736 45.7361C82.1836 42.9956 76.2815 41.9088 70.7372 42.9484C68.904 43.3264 67.1602 42.0033 66.8472 40.0663C66.5342 38.129 67.7414 36.2862 69.5747 35.9555C76.8628 34.5852 84.4192 36.0499 89.7847 39.83C93.7194 42.6176 95.9998 46.5866 95.9998 50.8392C95.9998 55.0445 93.7641 59.0613 89.7847 61.8963C85.7159 64.7314 80.4398 66.2902 74.9402 66.2902Z" fill="#594F4F"/>
<path d="M21.106 31.4689C21.0613 31.4689 21.0166 31.4689 21.0166 31.4689C12.9683 31.1854 6.66385 24.2868 6.61914 15.7817C6.61914 7.0876 13.326 0 21.5084 0C29.6908 0 36.3977 7.08759 36.3977 15.7345C36.3977 24.2868 30.0932 31.1854 22.045 31.4689L21.106 27.9251L21.419 31.4689C21.3296 31.4689 21.1954 31.4689 21.106 31.4689ZM21.5531 24.3813C21.8214 24.3813 22.045 24.3813 22.3132 24.4286C26.2927 24.2396 29.7802 20.4595 29.7802 15.7817C29.7802 11.0094 26.1138 7.1348 21.5978 7.1348C17.0819 7.1348 13.4154 11.0094 13.4154 15.7817C13.4154 20.4123 16.8136 24.1451 21.1507 24.4286C21.1954 24.3813 21.3743 24.3813 21.5531 24.3813Z" fill="#594F4F"/>
<path d="M21.0596 66.2902C15.56 66.2902 10.2839 64.7314 6.21504 61.8963C2.28034 59.1085 0 55.0918 0 50.8392C0 46.6339 2.28034 42.6176 6.21504 39.83C11.5805 36.0499 19.137 34.5852 26.4251 35.9555C28.2583 36.2862 29.4656 38.129 29.1526 40.0663C28.8396 42.0033 27.0958 43.3264 25.2626 42.9484C19.7182 41.9088 13.8609 42.9956 9.92618 45.7361C7.82469 47.2009 6.70688 48.9964 6.70688 50.8392C6.70688 52.682 7.86941 54.5252 9.92618 55.99C13.8162 58.7305 19.6288 59.8168 25.1284 58.8246C26.9617 58.4938 28.7054 59.8168 29.0184 61.7068C29.3314 63.6441 28.1242 65.4869 26.291 65.8177C24.5472 66.1484 22.8034 66.2902 21.0596 66.2902Z" fill="#594F4F"/>
<path d="M48.0678 66.7665C47.9337 66.7665 47.8442 66.7665 47.7101 66.7665H47.4865C39.0359 66.483 32.7314 59.5844 32.7314 51.0793C32.7314 42.3852 39.4383 35.3447 47.6207 35.3447C55.8031 35.3447 62.5099 42.4324 62.5099 51.0793C62.4652 59.6316 56.1608 66.5302 48.1125 66.8137C48.1125 66.7665 48.1125 66.7665 48.0678 66.7665ZM47.6207 42.3852C43.1047 42.3852 39.4383 46.2597 39.4383 51.032C39.4383 55.7098 42.8811 59.4899 47.3077 59.6789C47.3524 59.6316 47.7101 59.6316 48.1125 59.6789C52.4496 59.4426 55.8031 55.6626 55.8478 51.032C55.8478 46.307 52.1814 42.3852 47.6207 42.3852Z" fill="#594F4F"/>
<path d="M48.0633 101.635C42.6978 101.635 37.3323 100.171 33.174 97.1938C29.2393 94.406 26.959 90.4369 26.959 86.1844C26.959 81.9791 29.1946 77.9155 33.174 75.1277C41.5353 69.2686 54.636 69.2686 62.9526 75.1277C66.8873 77.9155 69.1676 81.8845 69.1676 86.1371C69.1676 90.3424 66.932 94.406 62.9526 97.1938C58.7943 100.123 53.4288 101.635 48.0633 101.635ZM36.8852 81.0813C34.7837 82.5461 33.6659 84.3888 33.6659 86.2316C33.6659 88.0744 34.8284 89.8699 36.8852 91.3347C42.9214 95.6345 53.1605 95.6345 59.1967 91.3347C61.2982 89.8699 62.416 88.0271 62.416 86.1844C62.416 84.3416 61.2535 82.5461 59.1967 81.0813C53.2052 76.7815 42.9661 76.8287 36.8852 81.0813Z" fill="#594F4F"/>
</svg>
