<svg width="56" height="56" viewBox="0 0 56 56" fill="none" xmlns="http://www.w3.org/2000/svg">
<path d="M9.544 48.4153V48.3333L9.38337 48.1848C3.93599 43.1501 0.5 35.9729 0.5 28C0.5 12.8481 12.8481 0.5 28 0.5C43.1519 0.5 55.5 12.8481 55.5 28C55.5 35.9727 52.0642 43.1495 46.5896 48.184L46.2058 48.5369L46.2378 48.5689C46.0837 48.6984 45.9238 48.8294 45.7607 48.9628C45.6241 49.0568 45.4863 49.1779 45.3764 49.2745C45.3343 49.3115 45.2962 49.345 45.2639 49.3719C44.7749 49.7794 44.2554 50.1625 43.7013 50.5504L43.6974 50.5531C43.6171 50.6105 43.5508 50.66 43.4918 50.7041C43.3776 50.7896 43.2903 50.8548 43.1799 50.9179L43.1675 50.925L43.1555 50.9328C42.7918 51.1692 42.4368 51.3762 42.0701 51.5901C41.8824 51.6995 41.6917 51.8108 41.4952 51.9286C41.4124 51.9761 41.3276 52.0292 41.2514 52.0769C41.2291 52.0909 41.2074 52.1044 41.1868 52.1172C41.0885 52.1782 40.9992 52.2314 40.9084 52.2768L40.9084 52.2767L40.9 52.2811C40.323 52.5833 39.7467 52.8577 39.171 53.1044L39.1575 53.1102L39.1444 53.1168C38.9156 53.2312 38.7155 53.3307 38.5204 53.4038L38.5096 53.4079L38.499 53.4124C38.1233 53.5735 37.7374 53.7058 37.3321 53.8448C37.127 53.9152 36.9169 53.9872 36.7007 54.0655C36.458 54.1282 36.221 54.2171 36.0124 54.2953L36.0061 54.2977C35.5591 54.4528 35.0924 54.5631 34.6007 54.6794C34.4257 54.7208 34.2474 54.763 34.0658 54.8082C33.9267 54.8281 33.8022 54.8622 33.7085 54.888L33.7066 54.8885C33.5956 54.9191 33.5325 54.9366 33.4733 54.945L33.4562 54.9475L33.4392 54.9511C32.6775 55.1143 31.9122 55.2239 31.1126 55.3067L31.0772 55.3103L31.0427 55.3189C30.919 55.3499 30.8677 55.36 30.828 55.36H30.8053L30.7827 55.3621C29.8692 55.4451 28.9329 55.5 28 55.5C27.0801 55.5 26.1567 55.4466 25.2272 55.3654C25.1307 55.3413 24.9892 55.3083 24.8376 55.3044C24.0459 55.2219 23.2875 55.1128 22.5328 54.9511L22.5115 54.9465L22.49 54.9439C22.3096 54.9213 22.1488 54.8762 21.9494 54.8192L21.9413 54.8169L21.9333 54.8149C21.2598 54.6466 20.5972 54.4808 19.936 54.288L19.9267 54.2853L19.9173 54.2829C19.7257 54.235 19.5288 54.1618 19.2996 54.0758L19.2877 54.0714L19.2756 54.0675C18.6727 53.8757 18.0693 53.6563 17.4653 53.4092L17.4585 53.4064L17.4516 53.4038C17.2565 53.3307 17.0564 53.2312 16.8276 53.1168L16.8108 53.1084L16.7933 53.1012C16.1956 52.8567 15.6261 52.5855 15.0846 52.2879C14.993 52.2355 14.8939 52.1761 14.7892 52.1133L14.7868 52.1118C14.6835 52.0498 14.5747 51.9845 14.4721 51.9259L14.4641 51.9213L14.456 51.9171C13.8863 51.6187 13.3445 51.2937 12.8304 50.9421C12.7311 50.8712 12.639 50.8075 12.55 50.7458L12.5486 50.7449C12.4583 50.6824 12.3711 50.622 12.2777 50.5553C12.1516 50.4624 12.026 50.3709 11.9012 50.2801C11.487 49.9785 11.0831 49.6844 10.7081 49.3719L10.6876 49.3548L10.6653 49.34C10.5779 49.2817 10.5145 49.2256 10.4269 49.1481C10.3758 49.1029 10.3164 49.0504 10.2393 48.9859C10.111 48.871 9.97208 48.7611 9.84592 48.6612C9.82185 48.6422 9.79824 48.6235 9.77526 48.6052C9.69308 48.5398 9.61607 48.4775 9.544 48.4153ZM41.5532 42.3311L41.5568 42.3335C42.7467 43.1177 43.7419 44.0337 44.5185 45.0244L44.8689 45.4715L45.2679 45.0672C49.6117 40.6663 52.3 34.6338 52.3 28C52.3 14.5919 41.4081 3.7 28 3.7C14.5919 3.7 3.7 14.5919 3.7 28C3.7 34.6338 6.38832 40.6663 10.7321 45.0672L11.1246 45.4648L11.4764 45.0309C12.2869 44.0312 13.2575 43.1149 14.4432 42.3335L14.4453 42.332C18.1686 39.8499 23.0856 38.594 28.021 38.594C32.9566 38.594 37.8588 39.8499 41.5532 42.3311Z" fill="#594F4F"/>
<path d="M9.544 48.4153V48.3333L9.38337 48.1848C3.93599 43.1501 0.5 35.9729 0.5 28C0.5 12.8481 12.8481 0.5 28 0.5C43.1519 0.5 55.5 12.8481 55.5 28C55.5 35.9727 52.0642 43.1495 46.5896 48.184L46.2058 48.5369L46.2378 48.5689C46.0837 48.6984 45.9238 48.8294 45.7607 48.9628C45.6241 49.0568 45.4863 49.1779 45.3764 49.2745C45.3343 49.3115 45.2962 49.345 45.2639 49.3719C44.7749 49.7794 44.2554 50.1625 43.7013 50.5504L43.6974 50.5531C43.6171 50.6105 43.5508 50.66 43.4918 50.7041C43.3776 50.7896 43.2903 50.8548 43.1799 50.9179L43.1675 50.925L43.1555 50.9328C42.7918 51.1692 42.4368 51.3762 42.0701 51.5901C41.8824 51.6995 41.6917 51.8108 41.4952 51.9286C41.4124 51.9761 41.3276 52.0292 41.2514 52.0769C41.2291 52.0909 41.2074 52.1044 41.1868 52.1172C41.0885 52.1782 40.9992 52.2314 40.9084 52.2768L40.9084 52.2767L40.9 52.2811C40.323 52.5833 39.7467 52.8577 39.171 53.1044L39.1575 53.1102L39.1444 53.1168C38.9156 53.2312 38.7155 53.3307 38.5204 53.4038L38.5096 53.4079L38.499 53.4124C38.1233 53.5735 37.7374 53.7058 37.3321 53.8448C37.127 53.9152 36.9169 53.9872 36.7007 54.0655C36.458 54.1282 36.221 54.2171 36.0124 54.2953L36.0061 54.2977C35.5591 54.4528 35.0924 54.5631 34.6007 54.6794C34.4257 54.7208 34.2474 54.763 34.0658 54.8082C33.9267 54.8281 33.8022 54.8622 33.7085 54.888L33.7066 54.8885C33.5956 54.9191 33.5325 54.9366 33.4733 54.945L33.4562 54.9475L33.4392 54.9511C32.6775 55.1143 31.9122 55.2239 31.1126 55.3067L31.0772 55.3103L31.0427 55.3189C30.919 55.3499 30.8677 55.36 30.828 55.36H30.8053L30.7827 55.3621C29.8692 55.4451 28.9329 55.5 28 55.5C27.0801 55.5 26.1567 55.4466 25.2272 55.3654C25.1307 55.3413 24.9892 55.3083 24.8376 55.3044C24.0459 55.2219 23.2875 55.1128 22.5328 54.9511L22.5115 54.9465L22.49 54.9439C22.3096 54.9213 22.1488 54.8762 21.9494 54.8192L21.9413 54.8169L21.9333 54.8149C21.2598 54.6466 20.5972 54.4808 19.936 54.288L19.9267 54.2853L19.9173 54.2829C19.7257 54.235 19.5288 54.1618 19.2996 54.0758L19.2877 54.0714L19.2756 54.0675C18.6727 53.8757 18.0693 53.6563 17.4653 53.4092L17.4585 53.4064L17.4516 53.4038C17.2565 53.3307 17.0564 53.2312 16.8276 53.1168L16.8108 53.1084L16.7933 53.1012C16.1956 52.8567 15.6261 52.5855 15.0846 52.2879C14.993 52.2355 14.8939 52.1761 14.7892 52.1133L14.7868 52.1118C14.6835 52.0498 14.5747 51.9845 14.4721 51.9259L14.4641 51.9213L14.456 51.9171C13.8863 51.6187 13.3445 51.2937 12.8304 50.9421C12.7311 50.8712 12.639 50.8075 12.55 50.7458L12.5486 50.7449C12.4583 50.6824 12.3711 50.622 12.2777 50.5553C12.1516 50.4624 12.026 50.3709 11.9012 50.2801C11.487 49.9785 11.0831 49.6844 10.7081 49.3719L10.6876 49.3548L10.6653 49.34C10.5779 49.2817 10.5145 49.2256 10.4269 49.1481C10.3758 49.1029 10.3164 49.0504 10.2393 48.9859C10.111 48.871 9.97208 48.7611 9.84592 48.6612C9.82185 48.6422 9.79824 48.6235 9.77526 48.6052C9.69308 48.5398 9.61607 48.4775 9.544 48.4153ZM41.5532 42.3311L41.5568 42.3335C42.7467 43.1177 43.7419 44.0337 44.5185 45.0244L44.8689 45.4715L45.2679 45.0672C49.6117 40.6663 52.3 34.6338 52.3 28C52.3 14.5919 41.4081 3.7 28 3.7C14.5919 3.7 3.7 14.5919 3.7 28C3.7 34.6338 6.38832 40.6663 10.7321 45.0672L11.1246 45.4648L11.4764 45.0309C12.2869 44.0312 13.2575 43.1149 14.4432 42.3335L14.4453 42.332C18.1686 39.8499 23.0856 38.594 28.021 38.594C32.9566 38.594 37.8588 39.8499 41.5532 42.3311Z" stroke="black"/>
<path d="M9.544 48.4153V48.3333L9.38337 48.1848C3.93599 43.1501 0.5 35.9729 0.5 28C0.5 12.8481 12.8481 0.5 28 0.5C43.1519 0.5 55.5 12.8481 55.5 28C55.5 35.9727 52.0642 43.1495 46.5896 48.184L46.2058 48.5369L46.2378 48.5689C46.0837 48.6984 45.9238 48.8294 45.7607 48.9628C45.6241 49.0568 45.4863 49.1779 45.3764 49.2745C45.3343 49.3115 45.2962 49.345 45.2639 49.3719C44.7749 49.7794 44.2554 50.1625 43.7013 50.5504L43.6974 50.5531C43.6171 50.6105 43.5508 50.66 43.4918 50.7041C43.3776 50.7896 43.2903 50.8548 43.1799 50.9179L43.1675 50.925L43.1555 50.9328C42.7918 51.1692 42.4368 51.3762 42.0701 51.5901C41.8824 51.6995 41.6917 51.8108 41.4952 51.9286C41.4124 51.9761 41.3276 52.0292 41.2514 52.0769C41.2291 52.0909 41.2074 52.1044 41.1868 52.1172C41.0885 52.1782 40.9992 52.2314 40.9084 52.2768L40.9084 52.2767L40.9 52.2811C40.323 52.5833 39.7467 52.8577 39.171 53.1044L39.1575 53.1102L39.1444 53.1168C38.9156 53.2312 38.7155 53.3307 38.5204 53.4038L38.5096 53.4079L38.499 53.4124C38.1233 53.5735 37.7374 53.7058 37.3321 53.8448C37.127 53.9152 36.9169 53.9872 36.7007 54.0655C36.458 54.1282 36.221 54.2171 36.0124 54.2953L36.0061 54.2977C35.5591 54.4528 35.0924 54.5631 34.6007 54.6794C34.4257 54.7208 34.2474 54.763 34.0658 54.8082C33.9267 54.8281 33.8022 54.8622 33.7085 54.888L33.7066 54.8885C33.5956 54.9191 33.5325 54.9366 33.4733 54.945L33.4562 54.9475L33.4392 54.9511C32.6775 55.1143 31.9122 55.2239 31.1126 55.3067L31.0772 55.3103L31.0427 55.3189C30.919 55.3499 30.8677 55.36 30.828 55.36H30.8053L30.7827 55.3621C29.8692 55.4451 28.9329 55.5 28 55.5C27.0801 55.5 26.1567 55.4466 25.2272 55.3654C25.1307 55.3413 24.9892 55.3083 24.8376 55.3044C24.0459 55.2219 23.2875 55.1128 22.5328 54.9511L22.5115 54.9465L22.49 54.9439C22.3096 54.9213 22.1488 54.8762 21.9494 54.8192L21.9413 54.8169L21.9333 54.8149C21.2598 54.6466 20.5972 54.4808 19.936 54.288L19.9267 54.2853L19.9173 54.2829C19.7257 54.235 19.5288 54.1618 19.2996 54.0758L19.2877 54.0714L19.2756 54.0675C18.6727 53.8757 18.0693 53.6563 17.4653 53.4092L17.4585 53.4064L17.4516 53.4038C17.2565 53.3307 17.0564 53.2312 16.8276 53.1168L16.8108 53.1084L16.7933 53.1012C16.1956 52.8567 15.6261 52.5855 15.0846 52.2879C14.993 52.2355 14.8939 52.1761 14.7892 52.1133L14.7868 52.1118C14.6835 52.0498 14.5747 51.9845 14.4721 51.9259L14.4641 51.9213L14.456 51.9171C13.8863 51.6187 13.3445 51.2937 12.8304 50.9421C12.7311 50.8712 12.639 50.8075 12.55 50.7458L12.5486 50.7449C12.4583 50.6824 12.3711 50.622 12.2777 50.5553C12.1516 50.4624 12.026 50.3709 11.9012 50.2801C11.487 49.9785 11.0831 49.6844 10.7081 49.3719L10.6876 49.3548L10.6653 49.34C10.5779 49.2817 10.5145 49.2256 10.4269 49.1481C10.3758 49.1029 10.3164 49.0504 10.2393 48.9859C10.111 48.871 9.97208 48.7611 9.84592 48.6612C9.82185 48.6422 9.79824 48.6235 9.77526 48.6052C9.69308 48.5398 9.61607 48.4775 9.544 48.4153ZM41.5532 42.3311L41.5568 42.3335C42.7467 43.1177 43.7419 44.0337 44.5185 45.0244L44.8689 45.4715L45.2679 45.0672C49.6117 40.6663 52.3 34.6338 52.3 28C52.3 14.5919 41.4081 3.7 28 3.7C14.5919 3.7 3.7 14.5919 3.7 28C3.7 34.6338 6.38832 40.6663 10.7321 45.0672L11.1246 45.4648L11.4764 45.0309C12.2869 44.0312 13.2575 43.1149 14.4432 42.3335L14.4453 42.332C18.1686 39.8499 23.0856 38.594 28.021 38.594C32.9566 38.594 37.8588 39.8499 41.5532 42.3311Z" stroke="black" stroke-opacity="0.2"/>
<path d="M18 24.3028C18 18.7829 22.4801 14.3027 28 14.3027C33.5194 14.3027 37.9993 18.7822 38 24.3015C37.9727 29.7147 33.7374 34.0838 28.3552 34.2748H28.308H28.112H27.8672C22.2287 34.1109 18 29.7094 18 24.3028Z" fill="#594F4F"/>
<path d="M18 24.3028C18 18.7829 22.4801 14.3027 28 14.3027C33.5194 14.3027 37.9993 18.7822 38 24.3015C37.9727 29.7147 33.7374 34.0838 28.3552 34.2748H28.308H28.112H27.8672C22.2287 34.1109 18 29.7094 18 24.3028Z" stroke="black"/>
<path d="M18 24.3028C18 18.7829 22.4801 14.3027 28 14.3027C33.5194 14.3027 37.9993 18.7822 38 24.3015C37.9727 29.7147 33.7374 34.0838 28.3552 34.2748H28.308H28.112H27.8672C22.2287 34.1109 18 29.7094 18 24.3028Z" stroke="black" stroke-opacity="0.2"/>
</svg>
