<svg width="118" height="107" viewBox="0 0 118 107" fill="none" xmlns="http://www.w3.org/2000/svg">
<path opacity="0.4" d="M94.4 0H23.6C10.561 0 0 10.502 0 23.423V82.777C0 95.698 10.561 106.2 23.6 106.2H94.4C107.439 106.2 118 95.698 118 82.777V23.423C118 10.502 107.439 0 94.4 0Z" fill="#594F4F"/>
<path d="M100.3 33.9252H70.8C68.381 33.9252 66.375 31.9192 66.375 29.5002C66.375 27.0812 68.381 25.0752 70.8 25.0752H100.3C102.719 25.0752 104.725 27.0812 104.725 29.5002C104.725 31.9192 102.719 33.9252 100.3 33.9252Z" fill="#594F4F"/>
<path d="M100.3 57.5248H76.7004C74.2814 57.5248 72.2754 55.5188 72.2754 53.0998C72.2754 50.6808 74.2814 48.6748 76.7004 48.6748H100.3C102.719 48.6748 104.725 50.6808 104.725 53.0998C104.725 55.5188 102.719 57.5248 100.3 57.5248Z" fill="#594F4F"/>
<path d="M100.3 81.1254H88.5002C86.0812 81.1254 84.0752 79.1194 84.0752 76.7004C84.0752 74.2814 86.0812 72.2754 88.5002 72.2754H100.3C102.719 72.2754 104.725 74.2814 104.725 76.7004C104.725 79.1194 102.719 81.1254 100.3 81.1254Z" fill="#594F4F"/>
<path d="M38.3468 51.8604C45.8739 51.8604 51.9761 45.7586 51.9761 38.2315C51.9761 30.7044 45.8739 24.6025 38.3468 24.6025C30.8197 24.6025 24.7178 30.7044 24.7178 38.2315C24.7178 45.7586 30.8197 51.8604 38.3468 51.8604Z" fill="#594F4F"/>
<path d="M43.0671 59.647C39.9401 59.352 36.6951 59.352 33.5681 59.647C23.6561 60.591 15.6911 68.438 14.7471 78.35C14.6881 79.176 14.9241 80.002 15.5141 80.592C16.1041 81.182 16.8711 81.595 17.6971 81.595H58.9968C59.8228 81.595 60.6488 81.241 61.1798 80.651C61.7108 80.061 62.0058 79.235 61.9468 78.409C60.9438 68.438 53.0378 60.591 43.0671 59.647Z" fill="#594F4F"/>
</svg>
