<svg width="118" height="130" viewBox="0 0 118 130" fill="none" xmlns="http://www.w3.org/2000/svg">
<path opacity="0.4" d="M118 42.7321V87.1523C118 94.4258 114.103 101.18 107.804 104.881L69.2285 127.157C62.9291 130.793 55.1361 130.793 48.7718 127.157L10.1959 104.881C3.89653 101.245 0 94.4907 0 87.1523V42.7321C0 35.4586 3.89653 28.7043 10.1959 25.0026L48.7718 2.72757C55.0711 -0.909189 62.8642 -0.909189 69.2285 2.72757L107.804 25.0026C114.103 28.7043 118 35.3936 118 42.7321Z" fill="#594F4F"/>
<path d="M59.0308 76.3076C56.3682 76.3076 54.1602 74.0995 54.1602 71.4369V37.3423C54.1602 34.6797 56.3682 32.4717 59.0308 32.4717C61.6934 32.4717 63.9015 34.6797 63.9015 37.3423V71.4369C63.9015 74.0995 61.6934 76.3076 59.0308 76.3076Z" fill="#594F4F"/>
<path d="M59.0303 99.0361C58.1861 99.0361 57.3418 98.8406 56.5625 98.5159C55.7183 98.1912 55.0689 97.7372 54.4195 97.1527C53.835 96.5033 53.3804 95.789 52.9907 95.0096C52.666 94.2303 52.5361 93.3861 52.5361 92.5419C52.5361 90.8534 53.1856 89.1642 54.4195 87.9303C55.0689 87.3458 55.7183 86.8919 56.5625 86.5672C58.9654 85.5281 61.8228 86.1119 63.6412 87.9303C64.2257 88.5797 64.6803 89.2298 65.005 90.074C65.3297 90.8534 65.5245 91.6976 65.5245 92.5419C65.5245 93.3861 65.3297 94.2303 65.005 95.0096C64.6803 95.789 64.2257 96.5033 63.6412 97.1527C62.4073 98.3866 60.7838 99.0361 59.0303 99.0361Z" fill="#594F4F"/>
</svg>
