<svg width="113" height="113" viewBox="0 0 113 113" fill="none" xmlns="http://www.w3.org/2000/svg">
<path opacity="0.4" d="M80.1735 0H32.8265C12.2605 0 0 12.2605 0 32.8265V80.1734C0 100.739 12.2605 113 32.8265 113H80.1735C100.74 113 113 100.739 113 80.1734V32.8265C113 12.2605 100.74 0 80.1735 0Z" fill="#594F4F"/>
<path d="M92.1548 38.8156C92.1548 41.1321 90.2903 43.0531 87.9173 43.0531H58.2548C55.9386 43.0531 54.0176 41.1321 54.0176 38.8156C54.0176 36.4991 55.9386 34.5781 58.2548 34.5781H87.9173C90.2903 34.5781 92.1548 36.4991 92.1548 38.8156Z" fill="#594F4F"/>
<path d="M45.0335 33.3331L32.321 46.0456C31.4735 46.8931 30.4 47.2886 29.3265 47.2886C28.253 47.2886 27.123 46.8931 26.332 46.0456L22.0945 41.8081C20.3995 40.1696 20.3995 37.4576 22.0945 35.8191C23.733 34.1806 26.3885 34.1806 28.0835 35.8191L29.3265 37.0621L39.0445 27.3441C40.683 25.7056 43.3385 25.7056 45.0335 27.3441C46.672 28.9826 46.672 31.6946 45.0335 33.3331Z" fill="#594F4F"/>
<path d="M92.1548 78.3664C92.1548 80.6829 90.2903 82.6039 87.9173 82.6039H58.2548C55.9386 82.6039 54.0176 80.6829 54.0176 78.3664C54.0176 76.0499 55.9386 74.1289 58.2548 74.1289H87.9173C90.2903 74.1289 92.1548 76.0499 92.1548 78.3664Z" fill="#594F4F"/>
<path d="M45.0335 72.8888L32.321 85.6013C31.4735 86.4488 30.4 86.8443 29.3265 86.8443C28.253 86.8443 27.123 86.4488 26.332 85.6013L22.0945 81.3638C20.3995 79.7253 20.3995 77.0133 22.0945 75.3748C23.733 73.7363 26.3885 73.7363 28.0835 75.3748L29.3265 76.6178L39.0445 66.8998C40.683 65.2613 43.3385 65.2613 45.0335 66.8998C46.672 68.5383 46.672 71.2503 45.0335 72.8888Z" fill="#594F4F"/>
</svg>
