<svg width="98" height="123" viewBox="0 0 98 123" fill="none" xmlns="http://www.w3.org/2000/svg">
<path opacity="0.4" d="M98 38.2812V98C98 116.375 87.0363 122.5 73.5 122.5H24.5C10.9637 122.5 0 116.375 0 98V38.2812C0 18.375 10.9637 13.7812 24.5 13.7812C24.5 17.5787 26.0311 21.0088 28.5423 23.52C31.0536 26.0312 34.4837 27.5625 38.2812 27.5625H59.7188C67.3138 27.5625 73.5 21.3762 73.5 13.7812C87.0363 13.7812 98 18.375 98 38.2812Z" fill="#594F4F"/>
<path d="M73.5 13.7812C73.5 21.3763 67.3138 27.5625 59.7188 27.5625H38.2812C34.4837 27.5625 31.0536 26.0313 28.5423 23.52C26.0311 21.0088 24.5 17.5788 24.5 13.7812C24.5 6.18625 30.6862 0 38.2812 0H59.7188C63.5163 0 66.9463 1.53125 69.4575 4.0425C71.9688 6.55375 73.5 9.98375 73.5 13.7812Z" fill="#594F4F"/>
<path d="M49 71.9688H24.5C21.9888 71.9688 19.9062 69.8862 19.9062 67.375C19.9062 64.8638 21.9888 62.7812 24.5 62.7812H49C51.5112 62.7812 53.5938 64.8638 53.5938 67.375C53.5938 69.8862 51.5112 71.9688 49 71.9688Z" fill="#594F4F"/>
<path d="M73.5 96.4688H24.5C21.9888 96.4688 19.9062 94.3862 19.9062 91.875C19.9062 89.3638 21.9888 87.2812 24.5 87.2812H73.5C76.0112 87.2812 78.0938 89.3638 78.0938 91.875C78.0938 94.3862 76.0112 96.4688 73.5 96.4688Z" fill="#594F4F"/>
</svg>
