<?xml version="1.0" standalone="no"?>
<!DOCTYPE svg PUBLIC "-//W3C//DTD SVG 20010904//EN"
 "http://www.w3.org/TR/2001/REC-SVG-20010904/DTD/svg10.dtd">
<svg version="1.0" xmlns="http://www.w3.org/2000/svg"
 width="96.000000pt" height="96.000000pt" viewBox="0 0 96.000000 96.000000"
 preserveAspectRatio="xMidYMid meet">
<metadata>
Created by potrace 1.14, written by Peter Selinger 2001-2017
</metadata>
<g transform="translate(0.000000,96.000000) scale(0.100000,-0.100000)"
fill="#000000" stroke="none">
<path d="M765 839 c-4 -5 -4 -21 -1 -35 5 -17 13 -24 31 -24 29 0 47 27 34 52
-11 20 -54 24 -64 7z"/>
<path d="M405 825 c-124 -29 -220 -113 -259 -229 -19 -56 -26 -139 -15 -178 5
-19 3 -28 -8 -32 -24 -9 -13 -60 14 -64 13 -2 37 -24 57 -51 82 -112 228 -167
361 -136 113 26 191 88 241 191 51 107 51 211 -3 317 -69 138 -237 217 -388
182z"/>
<path d="M822 731 c2 -7 7 -12 11 -12 12 1 9 15 -3 20 -7 2 -11 -2 -8 -8z"/>
<path d="M764 239 c-8 -14 11 -33 25 -25 11 7 4 36 -9 36 -5 0 -12 -5 -16 -11z"/>
<path d="M225 131 c-7 -12 12 -24 25 -16 11 7 4 25 -10 25 -5 0 -11 -4 -15 -9z"/>
</g>
</svg>
